# Blender v3.1.2 OBJ File: ''
# www.blender.org
mtllib cobweb2x2.mtl
o Plane.002
v 0.000000 -0.000001 5.120001
v 0.000000 0.000001 -5.119999
v 0.000000 20.480000 -5.119998
v 0.000000 20.480001 5.120002
v 0.000000 -0.000002 15.360002
v 0.000000 20.480000 15.360003
vt 0.000000 0.000000
vt 0.000000 1.000000
vt 1.000000 1.000000
vt 1.000000 0.000000
vt 1.000000 0.000000
vt 1.000000 1.000000
vn -1.0000 0.0000 0.0000
usemtl Material.002
s 1
f 1/1/1 4/2/1 3/3/1 2/4/1
f 5/5/1 6/6/1 4/2/1 1/1/1
o Plane.001_Plane.003
v 0.000000 -0.000001 5.120001
v 0.000000 0.000001 -5.119999
v 0.000000 20.480000 -5.119998
v 0.000000 20.480001 5.120002
v 0.000000 -0.000002 15.360002
v 0.000000 20.480000 15.360003
vt 0.000000 0.000000
vt 1.000000 0.000000
vt 1.000000 1.000000
vt 0.000000 1.000000
vt 1.000000 0.000000
vt 1.000000 1.000000
vn 1.0000 0.0000 0.0000
usemtl Material.002
s 1
f 7/7/2 8/8/2 9/9/2 10/10/2
f 11/11/2 7/7/2 10/10/2 12/12/2
